<?xml version="1.0" encoding="utf-8"?>
<!-- Generator: Adobe Illustrator 19.0.0, SVG Export Plug-In . SVG Version: 6.00 Build 0)  -->
<svg version="1.1" id="Layer_1" xmlns="http://www.w3.org/2000/svg" xmlns:xlink="http://www.w3.org/1999/xlink" x="0px" y="0px"
	 viewBox="0 0 96 96" style="enable-background:new 0 0 96 96;" xml:space="preserve">
<style type="text/css">
	.st0{fill:#DB443F;}
	.st1{clip-path:url(#XMLID_4_);fill:#FFFFFF;}
	.st2{clip-path:url(#XMLID_4_);fill:#888888;}
	.st3{clip-path:url(#XMLID_4_);fill:#DBDBDB;}
	.st4{clip-path:url(#XMLID_4_);fill:#888888;}
	.st5{clip-path:url(#XMLID_4_);fill:#999999;}
	.st6{clip-path:url(#XMLID_4_);fill:#E5E5E5;}
	.st7{clip-path:url(#XMLID_4_);fill:#242424;}
	.st8{clip-path:url(#XMLID_4_);fill:#DBDBDB;}
	.st9{clip-path:url(#XMLID_4_);fill:#888888;}
</style>
<g id="XMLID_1_">
	<circle id="XMLID_3_" class="st0" cx="48" cy="48" r="32.5"/>
	<g id="XMLID_6_">
		<defs>
			<circle id="XMLID_5_" cx="48" cy="48" r="32.5"/>
		</defs>
		<clipPath id="XMLID_4_">
			<use xlink:href="#XMLID_5_"  style="overflow:visible;"/>
		</clipPath>
		<path id="XMLID_7_" class="st1" d="M26.7,63.2c0-7,9.5-12.7,21.3-12.7s21.3,5.7,21.3,12.7V82H26.7V63.2z"/>
		<path id="XMLID_8_" class="st2" d="M63.7,54.6c-3.9-2.5-9.5-4.1-15.7-4.1c-5.8,0-11,1.4-14.8,3.6c2.1,6.4,8,10.6,15.4,10.6
			C55.7,64.8,61.4,60.7,63.7,54.6z"/>
		<path id="XMLID_9_" class="st3" d="M32.9,65.6c0-5,6.8-9,15.1-9s15.1,4,15.1,9v15.9H32.9V65.6z"/>
		<path id="XMLID_10_" class="st4" d="M36.5,59.8c2.9,3.1,7.1,5,12,5c4.7,0,8.7-1.7,11.6-4.5c-2.8-2.2-7.1-3.6-12.1-3.6
			C43.4,56.6,39.3,57.9,36.5,59.8z"/>
		<path id="XMLID_11_" class="st1" d="M48,63.7c-9.4,0-16.3-6.8-16.3-16.3v-4.1c-2.4-0.4-4.1-2.3-4.1-5.1c0-3.2,1.9-5.1,5.1-5.1
			c1.2,0,2.9,0.9,4.1,2c2.7-2,6.8-3,11.2-3s8.5,1.1,11.2,3c1.1-1.1,2.9-2,4.1-2c3.2,0,5.1,1.9,5.1,5.1c0,2.8-1.6,4.6-4.1,5.1v4.1
			C64.3,56.9,57.4,63.7,48,63.7z"/>
		<path id="XMLID_12_" class="st5" d="M35.8,35.8c0.3-0.2,0.7-0.3,1-0.5c-1-1-2.5-2-4.1-2c-0.3,0-0.7,0-1,0.1
			C32.9,33.6,34.9,34.8,35.8,35.8z"/>
		<path id="XMLID_13_" class="st5" d="M58.7,35.8c0.2-0.2,0.3-0.3,0.5-0.5c-2.5-2-7.1-3-11.2-3c-0.3,0-0.5,0-0.8,0
			C51.3,32.4,56.1,34,58.7,35.8z"/>
		<path id="XMLID_14_" class="st5" d="M63.2,33.3c-0.2,0-0.4,0-0.6,0.1c2.6,0.3,4.6,2.1,4.6,5c0,2.8-2.1,4.6-4.6,5.1v4.1
			c0,9.2-6.5,15.9-15.5,16.2c0.3,0,0.5,0,0.8,0c9.4,0,16.3-6.8,16.3-16.3v-4.1c2.4-0.4,4.1-2.3,4.1-5.1
			C68.3,35.1,66.5,33.3,63.2,33.3z"/>
		<circle id="XMLID_15_" class="st6" cx="54.1" cy="43.4" r="2.5"/>
		<circle id="XMLID_16_" class="st6" cx="41.9" cy="43.4" r="2.5"/>
		<circle id="XMLID_17_" class="st7" cx="41.9" cy="43.4" r="1"/>
		<circle id="XMLID_18_" class="st7" cx="54.1" cy="43.4" r="1"/>
		<ellipse id="XMLID_19_" class="st8" cx="48" cy="55.6" rx="10.7" ry="8.1"/>
		<ellipse id="XMLID_20_" class="st7" cx="48" cy="52.6" rx="4.6" ry="3"/>
		<path id="XMLID_21_" class="st9" d="M36.6,37.2l-0.9-0.8c-0.9-0.9-2.3-1.6-3-1.6c-2.4,0-3.6,1.2-3.6,3.6c0,2,1,3.3,2.8,3.6
			l1.1,0.2C33.7,40.2,34.9,38.5,36.6,37.2z"/>
		<path id="XMLID_22_" class="st9" d="M59.4,37.2l0.9-0.8c0.9-0.9,2.3-1.6,3-1.6c2.4,0,3.6,1.2,3.6,3.6c0,2-1,3.3-2.8,3.6l-1.1,0.2
			C62.3,40.2,61.1,38.5,59.4,37.2z"/>
	</g>
</g>
</svg>
